<svg width="75" height="75" viewBox="0 0 75 75" fill="none" xmlns="http://www.w3.org/2000/svg">
<path d="M56.0112 25.726C47.2986 20.8529 33.3146 13.0278 11.6243 0.88295C10.162 -0.082821 8.47947 -0.209384 7.02576 0.282658L44.2401 37.497L56.0112 25.726Z" fill="#32BBFF"/>
<path d="M7.02571 0.282715C6.75325 0.375 6.48811 0.486328 6.23455 0.620801C4.62922 1.48916 3.44958 3.16011 3.44958 5.27344V69.7207C3.44958 71.834 4.62908 73.505 6.23455 74.3732C6.48767 74.5075 6.75266 74.6193 7.02483 74.7122L44.2401 37.4971L7.02571 0.282715Z" fill="#32BBFF"/>
<path d="M44.2401 37.4971L7.0249 74.7122C8.47905 75.2079 10.1616 75.091 11.6244 74.1111C32.6592 62.3323 46.4856 54.6 55.299 49.6854C55.5443 49.5476 55.7847 49.4128 56.0223 49.2794L44.2401 37.4971Z" fill="#32BBFF"/>
<path d="M3.44958 37.4971V69.7207C3.44958 71.834 4.62908 73.505 6.23455 74.3732C6.48767 74.5075 6.75266 74.6193 7.02483 74.7122L44.2401 37.4971H3.44958Z" fill="#2C9FD9"/>
<path d="M11.6242 0.882995C9.88767 -0.263685 7.83982 -0.231019 6.2345 0.620934L43.6752 38.0618L56.0109 25.726C47.2985 20.8529 33.3145 13.0279 11.6242 0.882995Z" fill="#29CC5E"/>
<path d="M43.6756 36.9326L6.23462 74.3733C7.84009 75.2251 9.88779 75.2743 11.6244 74.1112C32.6592 62.3324 46.4856 54.6001 55.299 49.6855C55.5443 49.5477 55.7847 49.4129 56.0223 49.2795L43.6756 36.9326Z" fill="#D93F21"/>
<path d="M71.5503 37.497C71.5503 35.7114 70.6493 33.9093 68.8635 32.91C68.8635 32.91 65.5238 31.0466 55.2871 25.3208L43.1108 37.497L55.2989 49.6853C65.4233 44.0006 68.8634 42.0839 68.8634 42.0839C70.6493 41.0847 71.5503 39.2827 71.5503 37.497Z" fill="#FFD500"/>
<path d="M68.8635 42.0841C70.6493 41.0848 71.5503 39.2827 71.5503 37.4971H43.1108L55.2989 49.6853C65.4235 44.0008 68.8635 42.0841 68.8635 42.0841Z" fill="#FFAA00"/>
</svg>
